#N canvas 328 417 450 300 12;
#X obj 81 27 inlet~;
#X obj 284 117 switch~;
#X obj 284 77 v verbose;
#X obj 284 44 loadbang;
#X obj 208 43 r verbose;
#X obj 23 102 snapshot~;
#X obj 90 75 int;
#X floatatom 100 100 3 0 0 0 - - -;
#X obj 81 51 env~ 16384 8192;
#X obj 14 54 t b f;
#X obj 122 102 vsl 25 13 0 127 0 0 empty empty empty 0 -9 0 10 #fcfcfc
#000000 #000000 1200 1;
#X obj 32 152 * 63.6;
#X obj 31 181 + 63.5;
#X floatatom 122 100 3 0 0 0 - - -;
#X obj 142 177 abs;
#X obj 180 99 int;
#X obj 161 138 * 100;
#X connect 0 0 5 0;
#X connect 0 0 8 0;
#X connect 2 0 1 0;
#X connect 3 0 2 0;
#X connect 4 0 1 0;
#X connect 5 0 11 0;
#X connect 5 0 14 0;
#X connect 6 0 7 0;
#X connect 8 0 9 0;
#X connect 9 0 5 0;
#X connect 9 1 6 0;
#X connect 11 0 12 0;
#X connect 12 0 10 0;
#X connect 14 0 16 0;
#X connect 15 0 13 0;
#X connect 16 0 15 0;
#X coords 0 -1 1 1 47 18 2 100 100;
