#N canvas 70 30 932 500 12;
#X obj 105 151 unpack;
#X obj 105 30 inlet;
#X obj 149 101 print \$1;
#X obj 105 407 *~;
#X obj 815 421 switch~;
#X obj 776 30 inlet;
#X obj 149 77 spigot;
#X obj 105 77 t a a;
#X obj 188 43 r verbose;
#X obj 105 378 hip~ 4;
#N canvas 0 22 561 409 pitch 0;
#X obj 44 128 pack f 10;
#X obj 44 152 line~;
#X obj 44 22 inlet;
#X obj 44 329 outlet~;
#X obj 154 114 bendin;
#X obj 154 177 - 8192;
#X obj 154 201 / 8192;
#X obj 154 225 * 4;
#X obj 208 161 * 0.00787402;
#X obj 208 185 * 24;
#X obj 208 206 int;
#X obj 44 292 +~;
#X obj 154 273 line~;
#X obj 154 249 pack f 25;
#X obj 104 17 r vco-12-glideTime;
#X obj 208 135 r vco-12-pitchBendRange;
#X obj 280 29 r vco-12-glideOn;
#X floatatom 280 53 5 0 0 0 - - -;
#X obj 154 297 _env~;
#X obj 161 334 _env~;
#X obj 104 45 * 16;
#X obj 104 69 tabread4 dbtorms;
#X obj 104 93 * 1000;
#X connect 0 0 1 0;
#X connect 1 0 11 0;
#X connect 2 0 0 0;
#X connect 4 0 5 0;
#X connect 5 0 6 0;
#X connect 6 0 7 0;
#X connect 7 0 13 0;
#X connect 8 0 9 0;
#X connect 9 0 10 0;
#X connect 10 0 7 1;
#X connect 11 0 3 0;
#X connect 11 0 19 0;
#X connect 12 0 11 1;
#X connect 12 0 18 0;
#X connect 13 0 12 0;
#X connect 14 0 20 0;
#X connect 15 0 8 0;
#X connect 16 0 17 0;
#X connect 20 0 21 0;
#X connect 21 0 22 0;
#X connect 22 0 0 1;
#X restore 105 274 pd pitch;
#N canvas 61 45 1096 689 vco-12 1;
#X obj 250 39 inlet~;
#X obj 233 617 outlet~;
#X obj 459 400 vco~ 2, f 13;
#N canvas 0 90 782 687 detune~ 0;
#X obj 298 152 - 0.5;
#X obj 345 217 t b f;
#X obj 298 283 pack f 10;
#X obj 298 307 line~;
#X obj 298 255 +;
#X obj 298 186 * 5;
#X obj 298 377 *~;
#X obj 298 226 f;
#X obj 345 193 * 0.001;
#X obj 298 128 * 0.00787402;
#X obj 298 408 *~ -1;
#X obj 110 622 outlet~;
#X obj 259 622 outlet~;
#X obj 411 49 inlet~;
#X obj 298 101 r vco-12-detune;
#X obj 345 167 r vco-12-fine;
#X obj 561 49 inlet~;
#X obj 172 463 sig~ 1;
#X obj 172 487 -~;
#X obj 110 47 inlet~;
#X obj 416 381 _env~;
#X obj 52 456 _env~;
#X obj 129 566 _env~;
#X obj 275 561 _env~;
#X obj 309 332 _env~;
#X obj 316 434 _env~;
#X obj 266 462 _env~;
#X obj 110 438 +~;
#X obj 259 437 +~;
#X obj 110 530 +~;
#X obj 259 530 +~;
#X floatatom 326 256 5 0 0 0 - - -;
#X obj 562 454 mod~ vco-12-lfo3Mod 0.0787402, f 19;
#X obj 411 344 mod~ vco-12-lfo1Mod 0.0787402, f 19;
#X connect 0 0 5 0;
#X connect 1 0 7 0;
#X connect 1 1 4 1;
#X connect 2 0 3 0;
#X connect 3 0 6 0;
#X connect 3 0 24 0;
#X connect 4 0 2 0;
#X connect 4 0 31 0;
#X connect 5 0 7 0;
#X connect 6 0 10 0;
#X connect 6 0 27 1;
#X connect 7 0 4 0;
#X connect 8 0 1 0;
#X connect 9 0 0 0;
#X connect 10 0 25 0;
#X connect 10 0 28 1;
#X connect 13 0 33 0;
#X connect 14 0 9 0;
#X connect 15 0 8 0;
#X connect 16 0 32 0;
#X connect 17 0 18 0;
#X connect 18 0 29 1;
#X connect 19 0 27 0;
#X connect 19 0 28 0;
#X connect 27 0 21 0;
#X connect 27 0 29 0;
#X connect 28 0 26 0;
#X connect 28 0 30 0;
#X connect 29 0 11 0;
#X connect 29 0 22 0;
#X connect 30 0 12 0;
#X connect 30 0 23 0;
#X connect 32 0 18 1;
#X connect 32 0 30 1;
#X connect 33 0 6 1;
#X connect 33 0 20 0;
#X restore 250 120 pd detune~;
#X text 454 193 OSC 2;
#X text 227 194 OSC 1;
#X obj 233 400 vco~ 1, f 13;
#X obj 610 475 r vco-12-syncMode;
#X msg 610 499 \; vco-1-syncMode \$1 \; vco-2-syncMode \$1 \;;
#X obj 378 546 pack f 10;
#X obj 378 570 line~;
#X obj 378 522 tabread4 dbtorms;
#X obj 378 498 * 16.126;
#X obj 378 474 r vco-12-level;
#X obj 233 589 *~;
#X obj 240 424 _env~;
#X obj 463 424 _env~;
#X obj 267 153 _env~;
#X obj 355 158 _env~;
#X obj 159 608 _env~;
#X obj 233 477 +~;
#X obj 233 503 *~ 0.5;
#X obj 233 531 clip~ -1 1;
#X obj 283 72 r~ \$2-lfo-1;
#X obj 317 96 r~ \$2-lfo-3;
#X obj 268 253 r~ \$2-lfo-1;
#X obj 494 253 r~ \$2-lfo-1;
#X obj 285 282 r~ \$2-lfo-2;
#X obj 303 312 r~ \$2-lfo-3;
#X obj 529 312 r~ \$2-lfo-3;
#X obj 511 282 r~ \$2-lfo-2;
#X obj 547 43 inlet~;
#X obj 233 216 r \$1-velocity;
#X obj 459 216 r \$1-velocity;
#X connect 0 0 3 0;
#X connect 2 0 16 0;
#X connect 2 0 20 1;
#X connect 3 0 6 1;
#X connect 3 0 17 0;
#X connect 3 1 18 0;
#X connect 3 1 2 1;
#X connect 6 0 15 0;
#X connect 6 0 20 0;
#X connect 7 0 8 0;
#X connect 9 0 10 0;
#X connect 10 0 14 1;
#X connect 11 0 9 0;
#X connect 12 0 11 0;
#X connect 13 0 12 0;
#X connect 14 0 1 0;
#X connect 14 0 19 0;
#X connect 20 0 21 0;
#X connect 21 0 22 0;
#X connect 22 0 14 0;
#X connect 23 0 3 1;
#X connect 24 0 3 2;
#X connect 25 0 6 2;
#X connect 26 0 2 2;
#X connect 27 0 6 3;
#X connect 28 0 6 4;
#X connect 29 0 2 4;
#X connect 30 0 2 3;
#X connect 31 0 6 5;
#X connect 31 0 2 5;
#X connect 32 0 6 0;
#X connect 33 0 2 0;
#X restore 105 331 pd vco-12;
#X obj 28 293 _env~;
#X obj 28 350 _env~;
#X obj 776 388 switch;
#X obj 105 441 outlet~;
#X obj 299 441 outlet~;
#X obj 299 154 adsr~ 1 0.1 0.2 40 10 1;
#X obj 418 65 t f f;
#X obj 299 112 spigot 1;
#X obj 664 71 t f f;
#X obj 545 118 spigot 1;
#X obj 545 160 adsr~ 1 0.1 0.2 40 10 2;
#X obj 316 176 _env~;
#X obj 554 182 _env~;
#X obj 360 217 spigot;
#X obj 360 241 line;
#X obj 360 265 hsl 128 15 0 1 0 0 empty empty empty -2 -8 0 10 #fcfcfc
#000000 #000000 0 1;
#X obj 400 183 r verbose;
#X obj 592 219 spigot;
#X obj 592 243 line;
#X obj 592 267 hsl 128 15 0 1 0 0 empty empty empty -2 -8 0 10 #fcfcfc
#000000 #000000 0 1;
#X obj 632 185 r verbose;
#X obj 451 90 / 127;
#X obj 696 98 / 127;
#X obj 545 441 outlet~;
#X text 535 20 EG 2 ----------;
#X text 301 14 EG 1 -------;
#X obj 144 181 s \$1-velocity;
#X obj 418 39 r \$1-velocity;
#X obj 664 45 r \$1-velocity;
#X obj 164 154 s \$2-velocity;
#X connect 0 0 10 0;
#X connect 0 1 38 0;
#X connect 0 1 41 0;
#X connect 1 0 7 0;
#X connect 3 0 15 0;
#X connect 5 0 14 0;
#X connect 6 0 2 0;
#X connect 7 0 0 0;
#X connect 7 1 6 0;
#X connect 8 0 6 1;
#X connect 9 0 3 0;
#X connect 10 0 11 0;
#X connect 10 0 12 0;
#X connect 11 0 13 0;
#X connect 11 0 9 0;
#X connect 14 0 3 1;
#X connect 14 1 4 0;
#X connect 17 0 23 0;
#X connect 17 0 11 1;
#X connect 17 0 16 0;
#X connect 17 1 25 0;
#X connect 18 0 19 0;
#X connect 18 1 33 0;
#X connect 19 0 17 0;
#X connect 20 0 21 0;
#X connect 20 1 34 0;
#X connect 21 0 22 0;
#X connect 22 0 24 0;
#X connect 22 0 35 0;
#X connect 22 1 29 0;
#X connect 25 0 26 0;
#X connect 26 0 27 0;
#X connect 28 0 25 1;
#X connect 29 0 30 0;
#X connect 30 0 31 0;
#X connect 32 0 29 1;
#X connect 33 0 17 1;
#X connect 34 0 22 1;
#X connect 39 0 18 0;
#X connect 40 0 20 0;
