#N canvas 42 0 962 734 12;
#X msg 251 375 set \$1;
#X obj 239 420 tabosc4~ sawtooth;
#X obj 239 443 *~ 0.5;
#X obj 239 469 +~ 0.5;
#X obj 251 349 text get shapes;
#X obj 239 45 r lfo-\$1-frequency;
#X obj 239 97 clip 0.1 100;
#X obj 239 73 * 0.787402;
#X obj 338 537 r lfo-\$1-amplitude;
#X obj 257 640 pack f 10;
#X obj 257 664 line~;
#X obj 239 688 *~;
#X obj 338 589 tabread4 dbtorms;
#X obj 338 565 * 16.126;
#X obj 716 73 r lfo-\$1-aftertouchMod;
#X obj 716 124 r lfo-\$1-modWheelMod;
#X obj 716 171 r lfo-\$1-mode;
#X obj 251 323 r lfo-\$1-shape;
#X obj 475 44 inlet~;
#X obj 622 44 inlet~;
#X obj 35 41 inlet;
#X obj 35 145 !=;
#X obj 35 169 change;
#X obj 35 193 spigot;
#X obj 93 145 == 1;
#X obj 127 145 == 3;
#X obj 35 217 bng 15 250 50 0 empty empty empty 17 7 0 10 #fcfcfc #000000
#000000;
#X msg 355 395 0;
#X obj 35 237 s \$0-sync;
#X obj 355 373 r \$0-sync;
#X obj 36 379 bng 15 250 50 0 empty empty empty 17 7 0 10 #fcfcfc #000000
#000000;
#X obj 36 399 s \$0-sync;
#X obj 36 357 spigot;
#X obj 90 313 r lfo-\$1-syncMode;
#X obj 90 338 == 2;
#X obj 93 174 ||;
#X obj 93 119 t a a;
#X obj 93 93 r lfo-\$1-syncMode;
#X obj 36 290 r midi-clock;
#X floatatom 716 195 5 0 0 0 - - -;
#X floatatom 716 148 5 0 0 0 - - -;
#X floatatom 716 97 5 0 0 0 - - -;
#X obj 239 712 outlet~;
#X obj 239 224 pack f 10;
#X obj 239 247 line~;
#X obj 475 496 *~;
#X obj 239 515 *~;
#X text 584 583 enable if arguments are there \, bypass otherwise;
#X text 478 9 arg2;
#X text 625 9 arg3;
#X text 38 9 velocity;
#X obj 714 351 loadbang;
#X obj 492 78 _env~;
#X obj 640 74 _env~;
#X obj 485 324 _env~;
#X obj 635 324 _env~;
#X obj 246 490 _env~;
#X obj 247 538 _env~;
#X obj 314 708 _env~;
#X obj 475 280 mod~ lfo-\$1-\$2 0.787402, f 14;
#X obj 622 281 mod~ lfo-\$1-\$3 0.787402, f 14;
#X obj 714 375 symbol \$2;
#X obj 714 399 sel empty;
#X msg 714 423 1;
#X obj 475 442 +~;
#X obj 622 477 +~;
#X obj 851 386 loadbang;
#X obj 851 434 sel empty;
#X msg 851 458 1;
#X obj 851 410 symbol \$3;
#X floatatom 714 447 5 0 0 0 - - -;
#X floatatom 851 482 5 0 0 0 - - -;
#X obj 249 136 r lfo-\$1-frequency-nbx;
#X obj 249 160 t b f;
#X obj 348 641 t b f;
#X obj 338 667 +;
#X obj 348 617 r lfo-\$1-amplitude-nbx;
#X obj 239 186 * 1;
#X obj 373 666 * 0.01;
#X obj 274 185 * 0.01;
#X obj 823 228 r lfo-\$1-switch;
#X obj 823 252 switch~;
#X connect 0 0 1 0;
#X connect 1 0 2 0;
#X connect 2 0 3 0;
#X connect 3 0 46 0;
#X connect 3 0 56 0;
#X connect 4 0 0 0;
#X connect 5 0 7 0;
#X connect 6 0 77 0;
#X connect 7 0 6 0;
#X connect 8 0 13 0;
#X connect 9 0 10 0;
#X connect 10 0 11 1;
#X connect 11 0 42 0;
#X connect 11 0 58 0;
#X connect 12 0 75 0;
#X connect 13 0 12 0;
#X connect 14 0 41 0;
#X connect 15 0 40 0;
#X connect 16 0 39 0;
#X connect 17 0 4 0;
#X connect 18 0 52 0;
#X connect 18 0 59 0;
#X connect 19 0 53 0;
#X connect 19 0 60 0;
#X connect 20 0 21 0;
#X connect 21 0 22 0;
#X connect 22 0 23 0;
#X connect 23 0 26 0;
#X connect 24 0 35 0;
#X connect 25 0 35 1;
#X connect 26 0 28 0;
#X connect 27 0 1 1;
#X connect 29 0 27 0;
#X connect 30 0 31 0;
#X connect 32 0 30 0;
#X connect 33 0 34 0;
#X connect 34 0 32 1;
#X connect 35 0 23 1;
#X connect 36 0 24 0;
#X connect 36 1 25 0;
#X connect 37 0 36 0;
#X connect 38 0 32 0;
#X connect 43 0 44 0;
#X connect 44 0 1 0;
#X connect 45 0 46 1;
#X connect 46 0 11 0;
#X connect 46 0 57 0;
#X connect 51 0 61 0;
#X connect 59 0 54 0;
#X connect 59 0 64 0;
#X connect 60 0 55 0;
#X connect 60 0 65 0;
#X connect 61 0 62 0;
#X connect 62 0 63 0;
#X connect 63 0 64 1;
#X connect 63 0 70 0;
#X connect 64 0 45 0;
#X connect 65 0 45 1;
#X connect 66 0 69 0;
#X connect 67 0 68 0;
#X connect 68 0 65 1;
#X connect 68 0 71 0;
#X connect 69 0 67 0;
#X connect 72 0 73 0;
#X connect 73 0 77 0;
#X connect 73 1 79 0;
#X connect 74 0 75 0;
#X connect 74 1 78 0;
#X connect 75 0 9 0;
#X connect 76 0 74 0;
#X connect 77 0 43 0;
#X connect 78 0 75 1;
#X connect 79 0 77 1;
#X connect 80 0 81 0;
