#N canvas 812 693 450 300 12;
#X obj 69 12 inlet~;
#X obj 69 176 *~;
#X obj 87 38 r \$1;
#X obj 87 102 * \$2;
#X obj 87 129 pack f 10;
#X obj 87 153 line~;
#X obj 69 248 outlet~;
#X obj 87 72 t f f;
#X obj 69 212 +~;
#X obj 209 109 ==;
#X obj 209 169 pack f 10;
#X obj 209 193 line~;
#X text 159 34 Make output be 1 if input mul is 0;
#X obj 327 172 loadbang;
#X obj 327 196 f \$2;
#X obj 327 220 sel;
#X msg 327 244 1;
#X obj 327 268 t f;
#X text 320 130 if no arg2 \, dont scale, f 12;
#X connect 0 0 1 0;
#X connect 1 0 8 0;
#X connect 2 0 7 0;
#X connect 3 0 4 0;
#X connect 4 0 5 0;
#X connect 5 0 1 1;
#X connect 7 0 3 0;
#X connect 7 1 9 0;
#X connect 8 0 6 0;
#X connect 9 0 10 0;
#X connect 10 0 11 0;
#X connect 11 0 8 1;
#X connect 13 0 14 0;
#X connect 14 0 15 0;
#X connect 15 0 16 0;
#X connect 15 1 17 0;
#X connect 16 0 17 0;
#X connect 17 0 3 1;
