#N canvas 3 429 1201 753 12;
#X obj 250 734 *~;
#X obj 268 684 pack f 10;
#X obj 268 708 line~;
#X obj 691 682 pack f 10;
#X obj 691 706 line~;
#X obj 673 731 *~;
#X msg 458 552 set \$1;
#X obj 250 242 mtof~;
#X obj 691 310 *~ 0.5;
#X obj 268 660 tabread4 dbtorms;
#X obj 268 636 * 16.126;
#X obj 691 658 tabread4 dbtorms;
#X obj 691 634 * 16.126;
#X obj 250 18 inlet~;
#X obj 458 513 text get shapes;
#X obj 250 172 +~;
#X obj 337 34 r vco-\$1-transpose;
#X obj 250 291 +~;
#X obj 337 107 * 12;
#X obj 337 130 pack f 10;
#X obj 337 153 line~;
#X obj 268 268 r vco-\$1-tune;
#X obj 458 480 r vco-\$1-shape;
#X obj 337 83 -;
#X obj 691 388 phasor~;
#X obj 673 476 +~ 1;
#X obj 673 571 tabread4~ sawtooth;
#X obj 250 571 tabread4~ sawtooth;
#X obj 380 364 sig~ 2048;
#X obj 673 452 *~;
#X obj 447 285 r tab-size;
#X obj 380 284 r resize;
#X obj 380 315 f 2048;
#X obj 380 339 change;
#X obj 536 1078 cnv 15 100 60 empty empty empty 20 12 0 14 #e0e0e0
#404040 0;
#X obj 250 388 phasor~;
#X obj 250 476 +~ 1;
#X obj 250 452 *~;
#X obj 268 612 r vco-\$1-level;
#X obj 691 610 r vco-\$1-subLevel;
#X obj 646 -152 cnv 15 100 60 empty empty empty 20 12 0 14 #e0e0e0
#404040 0;
#X obj 499 18 inlet~;
#X obj 1109 18 inlet~;
#X obj 1169 18 inlet~;
#X obj 250 207 +~;
#X text 249 -11 Frequency;
#X text 490 -11 LFO 1;
#X text 1110 -11 LFO 2;
#X text 1170 -11 LFO 3;
#X obj 250 934 outlet~;
#X obj 250 767 *~;
#X obj 673 807 *~;
#X obj 836 407 *~;
#X obj 1229 18 inlet~;
#X text 1230 -11 EG 1;
#X obj 34 174 !=;
#X obj 34 198 change;
#X obj 34 222 spigot;
#X obj 92 174 == 1;
#X obj 126 174 == 3;
#X obj 34 246 bng 15 250 50 0 empty empty empty 17 7 0 10 #fcfcfc #000000
#000000;
#X obj 34 266 s \$0-sync;
#X obj 35 408 bng 15 250 50 0 empty empty empty 17 7 0 10 #fcfcfc #000000
#000000;
#X obj 35 428 s \$0-sync;
#X obj 35 386 spigot;
#X obj 89 367 == 2;
#X obj 92 203 ||;
#X obj 92 148 t a a;
#X obj 35 319 r midi-clock;
#X text 37 38 velocity;
#X obj 296 337 r \$0-sync;
#X msg 296 361 0;
#X obj 737 337 r \$0-sync;
#X msg 737 361 0;
#X obj 34 19 inlet;
#X obj 92 122 r vco-\$1-syncMode;
#X obj 89 342 r vco-\$1-syncMode;
#X obj 836 215 mod~ vco-\$1-lfo1Pwm 0.00787402, f 19;
#X obj 941 315 mod~ vco-\$1-lfo3Pwm 0.00787402, f 19;
#X obj 499 174 mod~ vco-\$1-lfo1Mod 0.0944882, f 19;
#X obj 1229 374 mod~ vco-\$1-eg1Pwm 0.00787402, f 18;
#X obj 1169 774 mod~ vco-\$1-lfo3Mod 0.00787402, f 19;
#X obj 1108 734 mod~ vco-\$1-lfo2Mod 0.00787402, f 19;
#X obj 255 499 _env~;
#X obj 256 411 _env~;
#X obj 838 429 _env~;
#X obj 180 753 _env~;
#X obj 182 845 _env~;
#X obj 1102 777 _env~;
#X obj 1167 814 _env~;
#X obj 1233 417 _env~;
#X obj 785 220 _env~;
#X obj 851 270 _env~;
#X obj 887 317 _env~;
#X obj 498 212 _env~;
#X obj 186 187 _env~;
#X obj 166 594 _env~;
#X obj 762 397 _env~;
#X obj 708 737 _env~;
#X obj 698 839 _env~;
#X obj 172 225 _env~;
#X obj 836 348 +~;
#X obj 250 826 +~;
#X msg 337 59 2 \$1;
#X obj 403 837 r vco-\$1-switch;
#X obj 403 861 switch;
#X obj 442 895 switch~;
#X obj 250 880 *~;
#X obj 250 855 *~;
#X obj 410 426 *~;
#X obj 380 433 +~;
#X obj 410 400 *~;
#X obj 549 258 r vco-\$1-pulseWidth;
#X obj 549 306 pack f 10;
#X obj 549 330 line~;
#X obj 836 298 +~;
#X obj 907 265 mod~ vco-\$1-lfo2Pwm 0.00787402, f 19;
#X msg 809 91 set \$1;
#X msg 809 115 0.0196851;
#X msg 809 43 0.0787402;
#X obj 809 67 * 0.25;
#X obj 549 281 * 0.0196851;
#X connect 0 0 50 0;
#X connect 0 0 86 0;
#X connect 1 0 2 0;
#X connect 2 0 0 1;
#X connect 3 0 4 0;
#X connect 4 0 5 1;
#X connect 5 0 98 0;
#X connect 5 0 51 0;
#X connect 6 0 26 0;
#X connect 6 0 27 0;
#X connect 7 0 17 0;
#X connect 8 0 24 0;
#X connect 9 0 1 0;
#X connect 10 0 9 0;
#X connect 11 0 3 0;
#X connect 12 0 11 0;
#X connect 13 0 15 0;
#X connect 14 0 6 0;
#X connect 15 0 44 0;
#X connect 15 0 95 0;
#X connect 16 0 103 0;
#X connect 17 0 8 0;
#X connect 17 0 35 0;
#X connect 18 0 19 0;
#X connect 19 0 20 0;
#X connect 20 0 15 1;
#X connect 21 0 17 1;
#X connect 22 0 14 0;
#X connect 23 0 18 0;
#X connect 24 0 29 1;
#X connect 25 0 26 0;
#X connect 26 0 5 0;
#X connect 27 0 0 0;
#X connect 27 0 96 0;
#X connect 28 0 110 0;
#X connect 28 0 111 0;
#X connect 29 0 25 0;
#X connect 30 0 32 1;
#X connect 31 0 32 0;
#X connect 32 0 33 0;
#X connect 33 0 28 0;
#X connect 35 0 37 0;
#X connect 35 0 84 0;
#X connect 36 0 27 0;
#X connect 36 0 83 0;
#X connect 37 0 36 0;
#X connect 38 0 10 0;
#X connect 39 0 12 0;
#X connect 41 0 77 0;
#X connect 41 0 79 0;
#X connect 42 0 82 0;
#X connect 42 0 116 0;
#X connect 43 0 78 0;
#X connect 43 0 81 0;
#X connect 44 0 100 0;
#X connect 44 0 7 0;
#X connect 50 0 102 0;
#X connect 51 0 99 0;
#X connect 51 0 102 1;
#X connect 52 0 85 0;
#X connect 52 0 109 1;
#X connect 53 0 80 0;
#X connect 53 0 108 1;
#X connect 55 0 56 0;
#X connect 56 0 57 0;
#X connect 57 0 60 0;
#X connect 58 0 66 0;
#X connect 59 0 66 1;
#X connect 60 0 61 0;
#X connect 62 0 63 0;
#X connect 64 0 62 0;
#X connect 65 0 64 1;
#X connect 66 0 57 1;
#X connect 67 0 58 0;
#X connect 67 1 59 0;
#X connect 68 0 64 0;
#X connect 70 0 71 0;
#X connect 71 0 35 1;
#X connect 72 0 73 0;
#X connect 73 0 24 1;
#X connect 74 0 55 0;
#X connect 75 0 67 0;
#X connect 76 0 65 0;
#X connect 77 0 91 0;
#X connect 77 0 115 0;
#X connect 78 0 93 0;
#X connect 78 0 101 1;
#X connect 79 0 44 1;
#X connect 79 0 94 0;
#X connect 80 0 52 1;
#X connect 80 0 90 0;
#X connect 81 0 51 1;
#X connect 81 0 89 0;
#X connect 82 0 50 1;
#X connect 82 0 88 0;
#X connect 101 0 52 0;
#X connect 102 0 87 0;
#X connect 102 0 108 0;
#X connect 103 0 23 0;
#X connect 104 0 105 0;
#X connect 105 0 107 1;
#X connect 105 1 106 0;
#X connect 107 0 49 0;
#X connect 108 0 107 0;
#X connect 109 0 110 1;
#X connect 110 0 37 1;
#X connect 110 0 29 0;
#X connect 111 0 109 0;
#X connect 112 0 121 0;
#X connect 113 0 114 0;
#X connect 114 0 111 1;
#X connect 115 0 101 0;
#X connect 116 0 92 0;
#X connect 116 0 115 1;
#X connect 117 0 118 0;
#X connect 119 0 120 0;
#X connect 120 0 117 0;
#X connect 121 0 113 0;
